<svg width="32" height="33" viewBox="0 0 32 33" fill="none" xmlns="http://www.w3.org/2000/svg">
<path d="M16 3.16663C8.66663 3.16663 2.66663 9.16663 2.66663 16.5C2.66663 23.8333 8.66663 29.8333 16 29.8333C23.3333 29.8333 29.3333 23.8333 29.3333 16.5C29.3333 9.16663 23.3333 3.16663 16 3.16663ZM16 27.1666C10.12 27.1666 5.33329 22.38 5.33329 16.5C5.33329 10.62 10.12 5.83329 16 5.83329C21.88 5.83329 26.6666 10.62 26.6666 16.5C26.6666 22.38 21.88 27.1666 16 27.1666ZM22.12 10.6066L13.3333 19.3933L9.87996 15.9533L7.99996 17.8333L13.3333 23.1666L24 12.5L22.12 10.6066Z" fill="#404040"/>
</svg>
