<svg width="32" height="33" viewBox="0 0 32 33" fill="none" xmlns="http://www.w3.org/2000/svg">
<path d="M28 22.5C28 23.0066 27.72 23.4466 27.2933 23.6733L16.76 29.5933C16.5467 29.7533 16.28 29.8333 16 29.8333C15.72 29.8333 15.4533 29.7533 15.24 29.5933L4.70667 23.6733C4.28 23.4466 4 23.0066 4 22.5V10.5C4 9.99329 4.28 9.55329 4.70667 9.32663L15.24 3.40663C15.4533 3.24663 15.72 3.16663 16 3.16663C16.28 3.16663 16.5467 3.24663 16.76 3.40663L27.2933 9.32663C27.72 9.55329 28 9.99329 28 10.5V22.5ZM16 6.03329L13.48 7.45996L21.3333 11.98L23.9467 10.5L16 6.03329ZM8.05333 10.5L16 14.9666L18.6133 13.5L10.7733 8.96663L8.05333 10.5ZM6.66667 21.7133L14.6667 26.22V17.2733L6.66667 12.78V21.7133ZM25.3333 21.7133V12.78L17.3333 17.2733V26.22L25.3333 21.7133Z" fill="#404040"/>
</svg>
