<svg width="32" height="33" viewBox="0 0 32 33" fill="none" xmlns="http://www.w3.org/2000/svg">
<path d="M24 25.1667C25.1066 25.1667 26 24.2734 26 23.1667C26 22.06 25.1066 21.1667 24 21.1667C22.8933 21.1667 22 22.06 22 23.1667C22 24.2734 22.8933 25.1667 24 25.1667ZM26 13.1667H22.6666V16.5H28.6133L26 13.1667ZM7.99998 25.1667C9.10665 25.1667 9.99998 24.2734 9.99998 23.1667C9.99998 22.06 9.10665 21.1667 7.99998 21.1667C6.89331 21.1667 5.99998 22.06 5.99998 23.1667C5.99998 24.2734 6.89331 25.1667 7.99998 25.1667ZM26.6666 11.1667L30.6666 16.5V23.1667H28C28 25.38 26.2133 27.1667 24 27.1667C21.7866 27.1667 20 25.38 20 23.1667H12C12 25.38 10.2133 27.1667 7.99998 27.1667C5.78665 27.1667 3.99998 25.38 3.99998 23.1667H1.33331V8.50004C1.33331 7.02004 2.51998 5.83337 3.99998 5.83337H22.6666V11.1667H26.6666ZM3.99998 8.50004V20.5H5.01331C5.74665 19.6867 6.81331 19.1667 7.99998 19.1667C9.18665 19.1667 10.2533 19.6867 10.9866 20.5H20V8.50004H3.99998ZM13.3333 9.83337L18 14.5L13.3333 19.1667V15.8334H6.66665V13.1667H13.3333V9.83337Z" fill="#404040"/>
</svg>
